<svg width="1024" height="1024" viewBox="0 0 1024 1024" fill="none" xmlns="http://www.w3.org/2000/svg">
<rect width="1024" height="1024" rx="128" fill="#3B82F6"/>
<path d="M256 384C256 348.654 284.654 320 320 320H704C739.346 320 768 348.654 768 384V640C768 675.346 739.346 704 704 704H320C284.654 704 256 675.346 256 640V384Z" fill="white"/>
<circle cx="400" cy="480" r="48" fill="#3B82F6"/>
<circle cx="624" cy="480" r="48" fill="#3B82F6"/>
<path d="M400 560C400 577.673 414.327 592 432 592H592C609.673 592 624 577.673 624 560C624 542.327 609.673 528 592 528H432C414.327 528 400 542.327 400 560Z" fill="#3B82F6"/>
</svg>